<?xml version="1.0" encoding="UTF-8" standalone="no"?>
<!-- Created with Inkscape (http://www.inkscape.org/) -->

<svg
   xmlns:dc="http://purl.org/dc/elements/1.1/"
   xmlns:cc="http://creativecommons.org/ns#"
   xmlns:rdf="http://www.w3.org/1999/02/22-rdf-syntax-ns#"
   xmlns:svg="http://www.w3.org/2000/svg"
   xmlns="http://www.w3.org/2000/svg"
   xmlns:sodipodi="http://sodipodi.sourceforge.net/DTD/sodipodi-0.dtd"
   xmlns:inkscape="http://www.inkscape.org/namespaces/inkscape"
   width="744.09448"
   height="1052.3622"
   id="svg2"
   version="1.1"
   inkscape:version="0.47 r22583"
   sodipodi:docname="background_src.svg">
  <defs
     id="defs4">
    <inkscape:perspective
       sodipodi:type="inkscape:persp3d"
       inkscape:vp_x="0 : 526.18109 : 1"
       inkscape:vp_y="0 : 1000 : 0"
       inkscape:vp_z="744.09448 : 526.18109 : 1"
       inkscape:persp3d-origin="372.04724 : 350.78739 : 1"
       id="perspective10" />
    <inkscape:perspective
       id="perspective2824"
       inkscape:persp3d-origin="0.5 : 0.33333333 : 1"
       inkscape:vp_z="1 : 0.5 : 1"
       inkscape:vp_y="0 : 1000 : 0"
       inkscape:vp_x="0 : 0.5 : 1"
       sodipodi:type="inkscape:persp3d" />
    <inkscape:perspective
       id="perspective2838"
       inkscape:persp3d-origin="0.5 : 0.33333333 : 1"
       inkscape:vp_z="1 : 0.5 : 1"
       inkscape:vp_y="0 : 1000 : 0"
       inkscape:vp_x="0 : 0.5 : 1"
       sodipodi:type="inkscape:persp3d" />
    <inkscape:perspective
       id="perspective2852"
       inkscape:persp3d-origin="0.5 : 0.33333333 : 1"
       inkscape:vp_z="1 : 0.5 : 1"
       inkscape:vp_y="0 : 1000 : 0"
       inkscape:vp_x="0 : 0.5 : 1"
       sodipodi:type="inkscape:persp3d" />
    <inkscape:perspective
       id="perspective2914"
       inkscape:persp3d-origin="0.5 : 0.33333333 : 1"
       inkscape:vp_z="1 : 0.5 : 1"
       inkscape:vp_y="0 : 1000 : 0"
       inkscape:vp_x="0 : 0.5 : 1"
       sodipodi:type="inkscape:persp3d" />
    <inkscape:perspective
       id="perspective3897"
       inkscape:persp3d-origin="0.5 : 0.33333333 : 1"
       inkscape:vp_z="1 : 0.5 : 1"
       inkscape:vp_y="0 : 1000 : 0"
       inkscape:vp_x="0 : 0.5 : 1"
       sodipodi:type="inkscape:persp3d" />
    <inkscape:perspective
       id="perspective4474"
       inkscape:persp3d-origin="0.5 : 0.33333333 : 1"
       inkscape:vp_z="1 : 0.5 : 1"
       inkscape:vp_y="0 : 1000 : 0"
       inkscape:vp_x="0 : 0.5 : 1"
       sodipodi:type="inkscape:persp3d" />
    <inkscape:perspective
       id="perspective4536"
       inkscape:persp3d-origin="0.5 : 0.33333333 : 1"
       inkscape:vp_z="1 : 0.5 : 1"
       inkscape:vp_y="0 : 1000 : 0"
       inkscape:vp_x="0 : 0.5 : 1"
       sodipodi:type="inkscape:persp3d" />
    <inkscape:perspective
       id="perspective4601"
       inkscape:persp3d-origin="0.5 : 0.33333333 : 1"
       inkscape:vp_z="1 : 0.5 : 1"
       inkscape:vp_y="0 : 1000 : 0"
       inkscape:vp_x="0 : 0.5 : 1"
       sodipodi:type="inkscape:persp3d" />
    <inkscape:perspective
       id="perspective6218"
       inkscape:persp3d-origin="0.5 : 0.33333333 : 1"
       inkscape:vp_z="1 : 0.5 : 1"
       inkscape:vp_y="0 : 1000 : 0"
       inkscape:vp_x="0 : 0.5 : 1"
       sodipodi:type="inkscape:persp3d" />
    <clipPath
       id="clipPath5146"
       clipPathUnits="userSpaceOnUse">
      <path
         id="path5148"
         d="M 0.059998,595.32 595.38,595.32 595.38,0 0.059998,0 l 0,595.32 z" />
    </clipPath>
    <inkscape:perspective
       id="perspective6693"
       inkscape:persp3d-origin="0.5 : 0.33333333 : 1"
       inkscape:vp_z="1 : 0.5 : 1"
       inkscape:vp_y="0 : 1000 : 0"
       inkscape:vp_x="0 : 0.5 : 1"
       sodipodi:type="inkscape:persp3d" />
    <inkscape:perspective
       id="perspective6709"
       inkscape:persp3d-origin="0.5 : 0.33333333 : 1"
       inkscape:vp_z="1 : 0.5 : 1"
       inkscape:vp_y="0 : 1000 : 0"
       inkscape:vp_x="0 : 0.5 : 1"
       sodipodi:type="inkscape:persp3d" />
  </defs>
  <sodipodi:namedview
     id="base"
     pagecolor="#ffffff"
     bordercolor="#666666"
     borderopacity="1.0"
     inkscape:pageopacity="0.0"
     inkscape:pageshadow="2"
     inkscape:zoom="0.46708377"
     inkscape:cx="586.43947"
     inkscape:cy="466.68748"
     inkscape:document-units="px"
     inkscape:current-layer="layer2"
     showgrid="false"
     inkscape:window-width="1214"
     inkscape:window-height="910"
     inkscape:window-x="222"
     inkscape:window-y="25"
     inkscape:window-maximized="0" />
  <metadata
     id="metadata7">
    <rdf:RDF>
      <cc:Work
         rdf:about="">
        <dc:format>image/svg+xml</dc:format>
        <dc:type
           rdf:resource="http://purl.org/dc/dcmitype/StillImage" />
        <dc:title />
      </cc:Work>
    </rdf:RDF>
  </metadata>
  <g
     inkscape:label="Background"
     inkscape:groupmode="layer"
     id="layer1"
     style="display:inline"
     sodipodi:insensitive="true">
    <rect
       style="fill:#ffffff;fill-opacity:1;stroke:none"
       id="rect4459"
       width="534.11768"
       height="353.17166"
       x="106.82353"
       y="145.45222" />
    <rect
       y="165.83246"
       x="125.89821"
       height="310.20535"
       width="162.9109"
       id="rect3696"
       style="fill:#000000;fill-opacity:1;stroke:none" />
    <g
       id="g4727"
       transform="matrix(0.56958271,0,0,0.56958271,193.70189,-425.30601)">
      <path
         id="path4664"
         style="fill:#bfd8e7;fill-opacity:1;fill-rule:evenodd;stroke:none"
         d="m -228.03303,1662.3847 c -52.3598,0 -104.72222,-11.6178 -144.60805,-34.8402 -59.89368,-34.8481 -74.86454,-85.9746 -44.92883,-128.9633 l 14.1445,-15.6396 84.81466,3.5899 1.16518,0.01 -15.55057,12.2514 c -31.58032,30.7084 -26.32523,72.4926 15.76528,99.5169 24.06032,15.4458 55.61445,23.1779 87.16858,23.1779 31.55152,0 63.10827,-7.7321 87.1555,-23.1779 42.08527,-27.0243 47.358689,-68.8085 15.78623,-99.5169 l -14.8698,-11.6937 39.90678,-0.5655 50.752111,-2.1497 12.837932,14.1994 c 29.9359713,42.9887 14.964058,94.1152 -44.90003,128.9633 -39.914633,23.2224 -92.277053,34.8402 -144.639473,34.8402 l 0,0" />
      <path
         id="path4666"
         style="fill:#bfd8e7;fill-opacity:1;fill-rule:evenodd;stroke:none"
         d="m 116.72945,1481.1454 -4.35437,-7.101 -7.85253,0.8012 -72.034335,5.1425 9.036039,14.6289 c 28.446112,54.4598 4.736655,115.8085 -71.13099,158.7657 -20.782105,11.7644 -44.028108,21.2743 -68.769208,28.6058 l 129.484271,0 c 92.735263,-55.0148 121.325393,-132.176 85.621123,-200.8431" />
      <path
         id="path4670"
         style="fill:#bfd8e7;fill-opacity:1;fill-rule:evenodd;stroke:none"
         d="m 131.51807,1681.9885 93.70407,0 c 71.9296,-67.4731 88.10597,-147.8156 48.3851,-221.0544 l -3.27821,-5.132 -68.48381,9.1617 -13.07097,1.3249 7.43883,11.3272 c 37.97964,68.4681 16.37275,144.3252 -64.69501,204.3726" />
      <path
         id="path4672"
         style="fill:#bfd8e7;fill-opacity:1;fill-rule:evenodd;stroke:none"
         d="m 311.00037,1681.9885 87.84674,0 c 62.3437,-77.203 71.39283,-163.6987 26.96411,-243.5829 l -5.59025,-8.4914 -38.44571,7.9756 -39.57686,6.6664 5.983,9.0308 c 42.15335,75.213 29.70818,157.1317 -37.18103,228.4015" />
      <path
         id="path4674"
         style="fill:#bfd8e7;fill-opacity:1;fill-rule:evenodd;stroke:none"
         d="m 483.99431,1681.9885 88.78936,0 c 54.22147,-85.7416 57.55729,-178.7361 9.83465,-265.3417 l -15.25994,-23.4109 -28.80221,8.803 -47.45819,11.945 10.85582,16.6555 c 45.36086,82.2147 39.32287,170.8338 -17.95949,251.3491" />
      <path
         id="path4676"
         style="fill:#bfd8e7;fill-opacity:1;fill-rule:evenodd;stroke:none"
         d="m 656.00635,1682.0194 81.85851,0 c 57.64108,-110.7859 45.97618,-229.8176 -35.13346,-337.2498 l -1.23064,-1.5082 -33.5572,15.3149 -33.72477,12.4766 24.18862,36.7228 c 49.82259,89.3942 48.98209,185.0516 -2.40106,274.2437" />
    </g>
    <g
       id="g4804"
       transform="matrix(1.2810529,0,0,1.2810529,-83.143224,-533.50834)">
      <path
         id="path4741"
         style="fill:#3a7ea3;fill-opacity:1;fill-rule:evenodd;stroke:none"
         d="m 201.63864,583.89827 c -3.99354,0 -7.98729,-0.88615 -11.02944,-2.65723 -4.56806,-2.65809 -5.70991,-6.55763 -3.42679,-9.83623 l 1.07866,-1.1928 6.469,0.27372 0.089,6.2e-4 -1.18617,0.9344 c -2.40859,2.34213 -2.00775,5.52901 1.20253,7.59017 1.83507,1.17811 4.24158,1.76798 6.6481,1.76798 2.40673,0 4.81345,-0.58987 6.64748,-1.76798 3.20986,-2.06116 3.61195,-5.24804 1.20398,-7.59017 l -1.134,-0.89196 3.04361,-0.0431 3.87076,-0.16399 0.97913,1.08307 c 2.28332,3.2786 1.14145,7.17814 -3.42458,9.83623 -3.04422,1.77108 -7.03797,2.65723 -11.0313,2.65723 l 0,0" />
      <path
         id="path4743"
         style="fill:#3a7ea3;fill-opacity:1;fill-rule:evenodd;stroke:none"
         d="m 227.93352,570.07515 -0.3319,-0.54164 -0.59899,0.0611 -5.49422,0.39215 0.68905,1.11578 c 2.16966,4.15359 0.3613,8.83266 -5.42507,12.10878 -1.62077,0.91756 -3.43782,1.65525 -5.37289,2.21929 l 9.9412,0 c 7.12327,-4.19825 9.32419,-10.10305 6.59282,-15.35544" />
      <path
         id="path4745"
         style="fill:#3a7ea3;fill-opacity:1;fill-rule:evenodd;stroke:none"
         d="m 191.6492,585.43059 c -1.93486,-0.56404 -3.75192,-1.30173 -5.37262,-2.21929 -6.31385,-3.57385 -7.89089,-8.81734 -4.73461,-13.22725 l 0.15949,-0.19545 -2.72964,-0.19401 -3.41273,-0.3468 -0.50629,0.82736 c -2.73167,5.25239 -0.53073,11.15719 6.59211,15.35544 l 10.00429,0" />
      <path
         id="path4747"
         style="fill:#3a7ea3;fill-opacity:1;fill-rule:evenodd;stroke:none"
         d="m 229.01182,585.43059 7.15723,0 c 5.51969,-5.15357 6.76633,-11.29772 3.72956,-16.89691 l -0.25012,-0.39153 -5.22319,0.69858 -0.99694,0.10125 0.56731,0.8638 c 2.90468,5.23624 1.24043,11.03917 -4.98385,15.62481" />
      <path
         id="path4749"
         style="fill:#3a7ea3;fill-opacity:1;fill-rule:evenodd;stroke:none"
         d="m 242.75256,585.39564 6.69924,0 c 4.7563,-5.88884 5.44432,-12.48683 2.05515,-18.58046 l -0.4261,-0.64744 -2.93242,0.6081 -3.01855,0.50851 0.45654,0.68864 c 3.21545,5.73709 2.26904,11.98642 -2.83386,17.42265" />
      <path
         id="path4751"
         style="fill:#3a7ea3;fill-opacity:1;fill-rule:evenodd;stroke:none"
         d="m 255.91894,585.43059 6.77461,0 c 4.15835,-6.54969 4.42005,-13.65682 0.77332,-20.2749 l -1.16402,-1.78558 -2.19658,0.67146 -3.61981,0.91101 0.82798,1.27044 c 3.46702,6.28308 2.99785,13.05665 -1.3955,19.20757" />
      <path
         id="path4753"
         style="fill:#3a7ea3;fill-opacity:1;fill-rule:evenodd;stroke:none"
         d="m 269.0642,585.39564 6.24353,0 c 4.39625,-8.44981 3.50636,-17.52824 -2.67982,-25.72196 l -0.094,-0.11511 -2.55953,1.16816 -2.57215,0.95159 1.845,2.80074 c 3.79995,6.81809 3.73577,14.11383 -0.18303,20.91658" />
      <path
         id="path4755"
         style="fill:#ffffff;fill-opacity:1;fill-rule:nonzero;stroke:none"
         d="m 190.65972,593.83779 c -0.71867,2.34958 -3.26923,3.42931 -6.07479,3.42931 -1.73897,0 -3.43151,-0.30297 -4.77634,-1.2693 -1.27521,-0.92841 -1.94762,-2.25474 -1.92449,-3.63773 -0.0231,-1.30741 0.60294,-2.72836 1.71582,-3.65676 1.20573,-1.02311 3.01425,-1.49689 4.70678,-1.49689 3.94174,0 6.35302,2.08431 6.35302,5.26719 l 0,0.51147 -7.9528,0 c 0,1.04228 0.41735,1.79987 1.80844,1.79987 1.04342,0 1.62307,-0.34082 1.80861,-1.17436 l 4.33575,0.2272 z m -4.63719,-2.74728 c 0,-0.94749 -0.37099,-1.66729 -1.66949,-1.66729 -1.20564,0 -1.64612,0.77674 -1.64612,1.66729 l 3.31561,0" />
      <path
         id="path4757"
         style="fill:#ffffff;fill-opacity:1;fill-rule:nonzero;stroke:none"
         d="m 199.16877,578.22518 0,9.9665 c -0.71867,-0.58742 -1.69262,-0.98526 -2.82869,-0.98526 -3.57054,0 -4.73001,2.59572 -4.73001,5.07785 0,2.38728 1.18265,4.98283 4.59087,4.98283 1.48391,0 2.48085,-0.41662 3.15334,-1.47774 l 0.0464,0 0,1.2884 4.35919,0 0,-18.74036 c -1.34664,1.07043 -3.28606,1.03317 -4.59108,-0.11222 z m -0.27807,16.02938 c -0.25529,0.32212 -0.55655,0.49254 -1.02033,0.49254 -1.43754,0 -1.5071,-1.51567 -1.5071,-2.36836 0,-0.53039 0.0927,-1.2693 0.23189,-1.79986 0.13893,-0.58717 0.48677,-1.02311 1.2984,-1.02311 0.37103,0 0.78823,0.13272 0.99714,0.37892 0.30125,0.30336 0.27807,0.75798 0.27807,1.1369 l 0,1.95159 c 0,0.47379 0.0464,0.81461 -0.27807,1.23138" />
      <path
         id="path4759"
         style="fill:#ffffff;fill-opacity:1;fill-rule:nonzero;stroke:none"
         d="m 212.82502,597.07776 0,-1.5916 -0.0462,0 c -0.48697,1.25053 -2.06364,1.78094 -3.59394,1.78094 -0.97395,0 -1.92451,-0.18934 -2.64317,-0.73891 -0.83482,-0.68204 -0.92757,-1.53474 -0.92757,-2.44406 l 0,-6.6882 4.59087,0 0,5.85444 c 0,0.62527 -0.0232,1.28846 1.02012,1.28846 0.46379,0 0.90439,-0.2085 1.11309,-0.54932 0.20871,-0.32214 0.2319,-0.66319 0.2319,-1.02319 l 0,-5.57039 4.59066,0 0,9.68183 -4.33579,0" />
      <path
         id="path4761"
         style="fill:#abced6;fill-opacity:1;fill-rule:evenodd;stroke:none"
         d="m 223.46729,589.38537 c 0.39421,-1.34501 1.25181,-2.29258 3.08397,-2.17895 l 0.6257,0.0379 0,3.39161 c -0.27786,-0.057 -0.57932,-0.0949 -0.88078,-0.0949 -0.74206,0 -1.50731,0.11379 -1.87813,0.66336 -0.32444,0.47354 -0.32444,1.09866 -0.32444,1.66706 l 0,4.20631 -4.59108,0 0,-9.68183 3.91838,0 0,1.98944 0.0464,0" />
      <path
         id="path4763"
         style="fill:#abced6;fill-opacity:1;fill-rule:evenodd;stroke:none"
         d="m 240.87981,592.32214 c 0,2.9366 -2.89847,4.94496 -6.51539,4.94496 -3.61712,0 -6.51517,-2.00836 -6.51517,-4.94496 0,-3.10736 2.8057,-5.11572 6.51517,-5.11572 3.70989,0 6.51539,2.00836 6.51539,5.11572 z m -8.11525,-0.13258 c 0,2.59539 0.76505,2.78513 1.59986,2.78513 0.83461,0 1.59986,-0.18974 1.59986,-2.78513 0,-0.9284 -0.0232,-2.61462 -1.59986,-2.61462 -1.57687,0 -1.59986,1.68622 -1.59986,2.61462" />
      <path
         id="path4765"
         style="fill:#abced6;fill-opacity:1;fill-rule:evenodd;stroke:none"
         d="m 249.92221,597.07776 c -0.11636,-0.43569 -0.16274,-0.89039 -0.16274,-1.34526 -0.92695,1.11798 -2.24875,1.5346 -3.8718,1.5346 -2.20257,0 -4.12729,-0.98503 -4.12729,-2.91784 0,-1.53458 1.46093,-2.55754 3.10717,-2.97445 1.5071,-0.37909 3.10696,-0.53064 4.66044,-0.6062 l 0,-0.0759 c 0,-0.87161 -0.27827,-1.2126 -1.39115,-1.2126 -0.90418,0 -1.66943,0.26527 -1.80857,1.07988 l -4.21984,-0.3219 c 0.69547,-2.4062 3.50118,-3.03163 6.16754,-3.03163 1.39116,0 3.17653,0.15166 4.33558,0.83394 1.55349,0.89014 1.36838,2.14067 1.36838,3.52377 l 0,3.39163 c 0,0.71997 0.0228,1.43988 0.37062,2.122 l -4.42834,0 z m -0.39422,-4.5282 c -1.11288,0.0947 -2.96782,0.37892 -2.96782,1.5535 0,0.62526 0.48697,0.89039 1.20564,0.89039 1.73899,0 1.76218,-1.19376 1.76218,-2.25449 l 0,-0.1894" />
      <path
         id="path4767"
         style="fill:#abced6;fill-opacity:1;fill-rule:evenodd;stroke:none"
         d="m 259.93815,587.39593 0,1.30738 0.0464,0 c 0.6491,-0.98526 1.83175,-1.49689 3.22291,-1.49689 1.46072,0 2.61978,0.45486 3.33885,1.49689 0.81163,-1.08013 1.99408,-1.49689 3.54715,-1.49689 0.99714,0 2.06364,0.24611 2.75974,0.83394 0.8578,0.71972 0.8578,1.6673 0.8578,2.69024 l 0,6.34716 -4.49853,0 0,-5.8166 c 0,-0.62526 0.0928,-1.32647 -0.97354,-1.32647 -1.2984,0 -1.25202,0.98542 -1.25202,1.76216 l 0,5.38091 -4.49832,0 0,-5.8166 c 0,-0.60634 -0.0464,-1.38325 -1.04332,-1.38325 -1.08969,0 -1.18245,0.66312 -1.18245,1.38325 l 0,5.8166 -4.49791,0 0,-9.68183 4.17326,0" />
      <path
         id="path4769"
         style="fill:#ffffff;fill-opacity:1;fill-rule:evenodd;stroke:none"
         d="m 203.66026,577.36551 c -1.17355,1.17314 -3.07819,1.17314 -4.25173,0 -1.17334,-1.17354 -1.17334,-3.07818 0,-4.25173 1.17354,-1.17313 3.07818,-1.17313 4.25173,0 1.17354,1.17355 1.17354,3.07819 0,4.25173 l 0,0" />
    </g>
    <flowRoot
       xml:space="preserve"
       id="flowRoot3079"
       style="font-size:9px;font-style:normal;font-variant:normal;font-weight:normal;font-stretch:normal;text-align:start;line-height:125%;writing-mode:lr-tb;text-anchor:start;fill:#000000;fill-opacity:1;stroke:none;font-family:Nimbus Sans L;-inkscape-font-specification:Nimbus Sans L"><flowRegion
         id="flowRegion3081"><rect
           id="rect3083"
           width="373.35239"
           height="237.58788"
           x="924.89569"
           y="679.00983" /></flowRegion><flowPara
         id="flowPara3085"></flowPara></flowRoot>  </g>
  <g
     inkscape:groupmode="layer"
     id="layer5"
     inkscape:label="Title"
     style="display:inline"
     sodipodi:insensitive="true">
    <rect
       y="818.49493"
       x="78.432869"
       height="69.28508"
       width="588.92316"
       id="rect4227"
       style="fill:#ffffff;fill-opacity:1;stroke:none;display:inline" />
    <g
       style="display:inline"
       transform="matrix(0.22099465,0,0,-0.22099619,486.10053,882.13262)"
       inkscape:label="eduroam"
       id="g6711">
      <g
         transform="scale(0.1,0.1)"
         id="g6713">
        <path
           id="path6715"
           style="fill:#ffffff;fill-opacity:1;fill-rule:nonzero;stroke:none"
           d="m 0,0 5950,0 0,2579.23 -5950,0 L 0,0 z" />
        <path
           id="path6717"
           style="fill:#bfd8e7;fill-opacity:1;fill-rule:evenodd;stroke:none"
           d="m 1746.39,1039.3 c -199.97,0 -399.95,44.37 -552.28,133.06 -228.743,133.09 -285.919,328.35 -171.59,492.53 l 54.02,59.73 323.92,-13.71 4.45,-0.03 -59.39,-46.79 c -120.61,-117.28 -100.54,-276.86 60.21,-380.07 91.89,-58.99 212.4,-88.52 332.91,-88.52 120.5,0 241.02,29.53 332.86,88.52 160.73,103.21 180.87,262.79 60.29,380.07 l -56.79,44.66 152.41,2.16 193.83,8.21 49.03,-54.23 c 114.33,-164.18 57.15,-359.44 -171.48,-492.53 -152.44,-88.69 -352.42,-133.06 -552.4,-133.06 l 0,0" />
        <path
           id="path6719"
           style="fill:#bfd8e7;fill-opacity:1;fill-rule:evenodd;stroke:none"
           d="m 3063.09,1731.48 -16.63,27.12 -29.99,-3.06 -275.11,-19.64 34.51,-55.87 c 108.64,-207.99 18.09,-442.29 -271.66,-606.35 -79.37,-44.93 -168.15,-81.25 -262.64,-109.25 l 494.52,0 c 354.17,210.11 463.36,504.8 327,767.05" />
        <path
           id="path6721"
           style="fill:#bfd8e7;fill-opacity:1;fill-rule:evenodd;stroke:none"
           d="m 742.105,964.312 497.655,0 c -94.51,28 -183.23,64.438 -262.604,109.368 -316.16,178.96 -395.133,441.53 -237.082,662.35 l 7.988,9.79 -136.687,9.72 -170.891,17.36 -25.351,-41.42 C 278.73,1469.21 387.836,1174.43 742.105,964.312" />
        <path
           id="path6723"
           style="fill:#bfd8e7;fill-opacity:1;fill-rule:evenodd;stroke:none"
           d="m 3119.57,964.43 357.87,0 c 274.71,257.69 336.49,564.53 184.79,844.24 l -12.52,19.6 -261.55,-34.99 -49.92,-5.06 28.41,-43.26 c 145.05,-261.49 62.53,-551.2 -247.08,-780.53" />
        <path
           id="path6725"
           style="fill:#bfd8e7;fill-opacity:1;fill-rule:evenodd;stroke:none"
           d="m 3805.04,964.43 335.5,0 c 238.1,294.85 272.66,625.19 102.98,930.28 l -21.35,32.43 -146.83,-30.46 -151.15,-25.46 22.85,-34.49 c 160.99,-287.25 113.46,-600.11 -142,-872.3" />
        <path
           id="path6727"
           style="fill:#bfd8e7;fill-opacity:1;fill-rule:evenodd;stroke:none"
           d="m 4465.73,964.43 339.1,0 c 207.08,327.46 219.82,682.62 37.56,1013.38 l -58.28,89.41 -110,-33.62 -181.25,-45.62 41.46,-63.61 c 173.24,-313.99 150.18,-652.44 -68.59,-959.94" />
        <path
           id="path6729"
           style="fill:#bfd8e7;fill-opacity:1;fill-rule:evenodd;stroke:none"
           d="m 5122.67,964.312 312.63,0 c 220.14,423.108 175.59,877.708 -134.18,1288.008 l -4.7,5.76 -128.16,-58.49 -128.8,-47.65 92.38,-140.25 c 190.28,-341.41 187.07,-706.74 -9.17,-1047.378" />
        <path
           id="path6731"
           style="fill:#231f20;fill-opacity:1;fill-rule:nonzero;stroke:none"
           d="m 1198.38,540.43 c -35.99,-117.657 -163.7,-171.715 -304.192,-171.715 -87.079,0 -171.833,15.168 -239.172,63.543 -63.852,46.5 -97.524,112.91 -96.368,182.168 -1.156,65.465 30.192,136.617 85.918,183.101 60.375,51.239 150.938,74.965 235.692,74.965 197.382,0 318.122,-104.379 318.122,-263.754 l 0,-25.621 -398.232,0 c 0,-52.191 20.899,-90.117 90.559,-90.117 52.246,0 81.273,17.066 90.563,58.809 L 1198.38,540.43 z M 966.176,677.996 c 0,47.449 -18.578,83.481 -83.598,83.481 -60.375,0 -82.43,-38.899 -82.43,-83.481 l 166.028,0" />
        <path
           id="path6733"
           style="fill:#231f20;fill-opacity:1;fill-rule:nonzero;stroke:none"
           d="m 1624.46,1322.21 0,-499.065 c -35.98,29.414 -84.75,49.347 -141.64,49.347 -178.8,0 -236.85,-129.98 -236.85,-254.273 0,-119.551 59.21,-249.504 229.88,-249.504 74.31,0 124.23,20.855 157.9,73.992 l 2.33,0 0,-64.512 218.28,0 0,938.395 c -67.43,-53.6 -164.55,-51.72 -229.9,5.62 z m -13.92,-802.663 c -12.78,-16.117 -27.87,-24.652 -51.09,-24.652 -71.99,0 -75.47,75.894 -75.47,118.582 0,26.57 4.64,63.57 11.62,90.14 6.95,29.391 24.37,51.219 65.01,51.219 18.58,0 39.47,-6.637 49.93,-18.961 15.08,-15.191 13.92,-37.969 13.92,-56.934 l 0,-97.722 c 0,-23.723 2.33,-40.789 -13.92,-61.672" />
        <path
           id="path6735"
           style="fill:#231f20;fill-opacity:1;fill-rule:nonzero;stroke:none"
           d="m 2308.3,378.195 0,79.684 -2.32,0 c -24.39,-62.621 -103.34,-89.164 -179.97,-89.164 -48.76,0 -96.37,9.48 -132.35,36.992 -41.8,34.156 -46.45,76.844 -46.45,122.375 l 0,334.906 229.89,0 0,-293.144 c 0,-31.313 -1.16,-64.516 51.08,-64.516 23.23,0 45.29,10.43 55.74,27.496 10.45,16.137 11.61,33.207 11.61,51.238 l 0,278.926 229.88,0 0,-484.793 -217.11,0" />
        <path
           id="path6737"
           style="fill:#2a6692;fill-opacity:1;fill-rule:evenodd;stroke:none"
           d="m 2841.2,763.371 c 19.73,67.359 62.68,114.809 154.41,109.121 l 31.33,-1.898 0,-169.844 c -13.91,2.867 -29.01,4.762 -44.1,4.762 -37.15,0 -75.46,-5.707 -94.03,-33.227 -16.26,-23.703 -16.26,-55.015 -16.26,-83.48 l 0,-210.61 -229.89,0 0,484.793 196.22,0 0,-99.617 2.32,0" />
        <path
           id="path6739"
           style="fill:#2a6692;fill-opacity:1;fill-rule:evenodd;stroke:none"
           d="m 3713.11,616.324 c 0,-147.051 -145.14,-247.609 -326.26,-247.609 -181.13,0 -326.24,100.558 -326.24,247.609 0,155.602 140.49,256.168 326.24,256.168 185.77,0 326.26,-100.566 326.26,-256.168 z m -406.38,6.637 c 0,-129.961 38.32,-139.461 80.12,-139.461 41.8,0 80.11,9.5 80.11,139.461 0,46.48 -1.16,130.93 -80.11,130.93 -78.95,0 -80.12,-84.45 -80.12,-130.93" />
        <path
           id="path6741"
           style="fill:#2a6692;fill-opacity:1;fill-rule:evenodd;stroke:none"
           d="m 4165.9,378.195 c -5.83,21.805 -8.15,44.578 -8.15,67.356 -46.42,-55.981 -112.6,-76.836 -193.87,-76.836 -110.31,0 -206.67,49.32 -206.67,146.094 0,76.843 73.15,128.062 155.58,148.945 75.47,18.98 155.58,26.566 233.37,30.359 l 0,3.793 c 0,43.656 -13.93,60.723 -69.66,60.723 -45.28,0 -83.6,-13.274 -90.56,-54.067 l -211.32,16.122 c 34.84,120.48 175.32,151.808 308.84,151.808 69.67,0 159.07,-7.605 217.1,-41.762 77.8,-44.582 68.53,-107.203 68.53,-176.46 l 0,-169.825 c 0,-36.05 1.14,-72.101 18.55,-106.25 l -221.74,0 z m -19.74,226.731 c -55.73,-4.742 -148.61,-18.965 -148.61,-77.789 0,-31.313 24.38,-44.586 60.37,-44.586 87.08,0 88.24,59.773 88.24,112.894 l 0,9.481" />
        <path
           id="path6743"
           style="fill:#2a6692;fill-opacity:1;fill-rule:evenodd;stroke:none"
           d="m 4667.44,862.988 0,-65.461 2.32,0 c 32.51,49.344 91.72,74.965 161.39,74.965 73.14,0 131.18,-22.777 167.19,-74.965 40.64,54.086 99.85,74.965 177.62,74.965 49.93,0 103.34,-12.328 138.19,-41.762 42.96,-36.05 42.96,-83.5 42.96,-134.718 l 0,-317.817 -225.27,0 0,291.246 c 0,31.309 4.64,66.434 -48.74,66.434 -65.02,0 -62.7,-49.348 -62.7,-88.242 l 0,-269.438 -225.25,0 0,291.246 c 0,30.364 -2.32,69.278 -52.24,69.278 -54.57,0 -59.22,-33.207 -59.22,-69.278 l 0,-291.246 -225.22,0 0,484.793 208.97,0" />
        <path
           id="path6745"
           style="fill:#231f20;fill-opacity:1;fill-rule:evenodd;stroke:none"
           d="m 1849.37,1365.27 c -58.76,-58.75 -154.14,-58.75 -212.9,0 -58.76,58.75 -58.76,154.13 0,212.9 58.76,58.74 154.14,58.74 212.9,0 58.76,-58.77 58.76,-154.15 0,-212.9 l 0,0" />
      </g>
    </g>
    <rect
       style="fill:none;stroke:none;display:inline"
       id="titlebox"
       width="493"
       height="58"
       x="126.39445"
       y="824.13745">
      <title
         id="title4229">Title bar crop box</title>
    </rect>
  </g>
  <g
     inkscape:groupmode="layer"
     id="layer2"
     inkscape:label="Mask"
     style="display:inline"
     sodipodi:insensitive="true">
    <path
       style="fill:#e6e6e6;fill-opacity:1;stroke:none"
       d="m -32.413251,704.8045 0,297.6563 809.625001,0 0,-297.6563 -809.625,0 z m 159.218751,119.84375 493,0 0,58 -493,0 0,-58 z"
       id="path4073" />
    <path
       style="fill:#e6e6e6;fill-opacity:1;stroke:none"
       d="m -32.413233,64.380493 0,511.312497 809.624963,0 0,-511.312497 -809.624963,0 z m 159.218763,100.562497 491.1875,0 0,310.1875 -491.1875,0 0,-310.1875 z"
       id="rect3765" />
    <rect
       style="fill:none;stroke:none;display:inline"
       id="bgbox"
       width="493"
       height="312"
       x="125.89925"
       y="164.03674"
       inkscape:export-xdpi="90"
       inkscape:export-ydpi="90" />
  </g>
  <g
     inkscape:groupmode="layer"
     id="layer3"
     inkscape:label="Instructions"
     style="display:inline"
     sodipodi:insensitive="true">
    <flowRoot
       xml:space="preserve"
       id="flowRoot3087"
       style="font-size:24px;font-style:normal;font-variant:normal;font-weight:normal;font-stretch:normal;text-align:start;line-height:120.00000477%;writing-mode:lr-tb;text-anchor:start;fill:#000000;fill-opacity:1;stroke:none;display:inline;font-family:DejaVu Serif;-inkscape-font-specification:DejaVu Serif"
       transform="translate(-17.204938,-364.08037)"><flowRegion
         id="flowRegion3089"><rect
           id="rect3091"
           width="1139.7722"
           height="342.00073"
           x="876.81238"
           y="529.10315"
           style="font-size:24px;font-style:normal;font-variant:normal;font-weight:normal;font-stretch:normal;text-align:start;line-height:120.00000477%;writing-mode:lr-tb;text-anchor:start;font-family:DejaVu Serif;-inkscape-font-specification:DejaVu Serif" /></flowRegion><flowPara
         id="flowPara3093">To create the background image (Inkscape instructions in brackets):</flowPara><flowPara
         id="flowPara4465">  • Hide layer 'Mask'</flowPara><flowPara
         id="flowPara4461">  • Select the item with ID 'bgbox' (Edit → Find, set ID = 'bgbox', tick 'include locked')</flowPara><flowPara
         id="flowPara4467">  • Export the bitmap (File-&gt;Export Bitmap…)</flowPara><flowPara
         id="flowPara4469">  • Ensure that the Export Area is 'selection'</flowPara><flowPara
         id="flowPara4471">  • Check export size is 493x312</flowPara><flowPara
         id="flowPara4473">  • Convert the saved PNG to BMP in Gimp or similar.</flowPara></flowRoot>    <flowRoot
       transform="translate(-17.204938,246.72395)"
       style="font-size:24px;font-style:normal;font-variant:normal;font-weight:normal;font-stretch:normal;text-align:start;line-height:120.00000477%;writing-mode:lr-tb;text-anchor:start;fill:#000000;fill-opacity:1;stroke:none;display:inline;font-family:DejaVu Serif;-inkscape-font-specification:DejaVu Serif"
       id="flowRoot3095"
       xml:space="preserve"><flowRegion
         id="flowRegion3097"><rect
           style="font-size:24px;font-style:normal;font-variant:normal;font-weight:normal;font-stretch:normal;text-align:start;line-height:120.00000477%;writing-mode:lr-tb;text-anchor:start;font-family:DejaVu Serif;-inkscape-font-specification:DejaVu Serif"
           y="529.10315"
           x="876.81238"
           height="134.06334"
           width="531.74426"
           id="rect3099" /></flowRegion><flowPara
         id="flowPara3101">To create the title image, follow the instructions above, except select the item with ID 'titlebox' and ensure the export size is 493x58.</flowPara></flowRoot>  </g>
</svg>
